<svg width="47" height="16" viewBox="0 0 47 16" fill="none" xmlns="http://www.w3.org/2000/svg">
<path d="M12.5215 11.4844L14.709 0.78125H17.1602L13.8789 15H11.5156L8.81055 4.61914L6.04688 15H3.67383L0.392578 0.78125H2.84375L5.05078 11.4648L7.76562 0.78125H9.83594L12.5215 11.4844ZM17.9805 9.61914C17.9805 8.58398 18.1855 7.65299 18.5957 6.82617C19.0059 5.99284 19.582 5.35482 20.3242 4.91211C21.0664 4.46289 21.9193 4.23828 22.8828 4.23828C24.3086 4.23828 25.4642 4.69727 26.3496 5.61523C27.2415 6.5332 27.7233 7.75065 27.7949 9.26758L27.8047 9.82422C27.8047 10.8659 27.6029 11.7969 27.1992 12.6172C26.8021 13.4375 26.2292 14.0723 25.4805 14.5215C24.7383 14.9707 23.8789 15.1953 22.9023 15.1953C21.4115 15.1953 20.2168 14.7005 19.3184 13.7109C18.4264 12.7148 17.9805 11.39 17.9805 9.73633V9.61914ZM20.3535 9.82422C20.3535 10.9115 20.5781 11.7643 21.0273 12.3828C21.4766 12.9948 22.1016 13.3008 22.9023 13.3008C23.7031 13.3008 24.3249 12.9883 24.7676 12.3633C25.2168 11.7383 25.4414 10.8236 25.4414 9.61914C25.4414 8.55143 25.2103 7.70508 24.748 7.08008C24.2923 6.45508 23.6706 6.14258 22.8828 6.14258C22.1081 6.14258 21.4928 6.45182 21.0371 7.07031C20.5814 7.68229 20.3535 8.60026 20.3535 9.82422ZM35.3438 6.60156C35.0312 6.54948 34.709 6.52344 34.377 6.52344C33.2897 6.52344 32.5573 6.9401 32.1797 7.77344V15H29.8066V4.43359H32.0723L32.1309 5.61523C32.7038 4.69727 33.498 4.23828 34.5137 4.23828C34.8522 4.23828 35.1322 4.28385 35.3535 4.375L35.3438 6.60156ZM40.2754 10.4688L39.2207 11.5527V15H36.8477V0H39.2207V8.65234L39.9629 7.72461L42.8828 4.43359H45.7344L41.8086 8.83789L46.1543 15H43.4102L40.2754 10.4688Z" fill="#B3BAC5"/>
</svg>
